<?xml version="1.0" encoding="iso-8859-1"?>
<!-- Generator: Adobe Illustrator 19.0.0, SVG Export Plug-In . SVG Version: 6.00 Build 0)  -->
<svg version="1.1" id="Layer_1" xmlns="http://www.w3.org/2000/svg" xmlns:xlink="http://www.w3.org/1999/xlink" x="0px" y="0px"
	 viewBox="0 0 512 512" style="enable-background:new 0 0 512 512;" xml:space="preserve">
<path style="fill:#DFDFE2;" d="M53.476,167.188V75.612c0-24.385,19.951-44.337,44.337-44.337h362.205
	c24.385,0,44.337,19.951,44.337,44.337v230.003c0,24.385-19.951,44.337-44.337,44.337H236.831H53.476V167.188z"/>
<path style="fill:#ACAAB1;" d="M460.017,54.723c11.518,0,20.889,9.371,20.889,20.889v230.003c0,11.518-9.371,20.889-20.889,20.889
	H236.831H76.924V167.188V75.612c0-11.518,9.371-20.889,20.889-20.889H460.017 M460.017,31.276H97.813
	c-24.385,0-44.337,19.951-44.337,44.337v91.576v182.764h183.355h223.186c24.385,0,44.337-19.951,44.337-44.337V75.612
	C504.354,51.228,484.402,31.276,460.017,31.276L460.017,31.276z"/>
<path style="fill:#4BCDB2;" d="M90.392,399.31c-32.806,8.574-57.2,38.549-57.2,73.945v9.159H248.58v-9.159
	c0-35.395-24.392-65.369-57.197-73.944L90.392,399.31z"/>
<path style="fill:#FF6243;" d="M179.517,403.785c-4.283,17.354-19.954,30.222-38.631,30.222s-34.348-12.869-38.631-30.223
	L179.517,403.785z"/>
<polyline style="fill:#328777;" points="114.342,482.414 114.342,447.99 140.886,434.007 169.632,447.99 169.632,482.414 "/>
<path style="fill:#50000F;" d="M247.127,248.197L247.127,248.197v-17.159c0-58.433-47.808-106.241-106.241-106.241l0,0
	c-58.433,0-106.241,47.808-106.241,106.241v17.159l0,0v34.282h212.481L247.127,248.197z"/>
<path style="fill:#FF7956;" d="M152.422,163.212c46.425,0,84.41,37.984,84.41,84.41l0.194,5.502v70.669
	c0,46.425-37.984,84.41-84.41,84.41h-23.459c-46.425,0-84.41-37.984-84.41-84.41v-76.171c0-46.425,37.984-84.41,84.41-84.41
	L152.422,163.212L152.422,163.212z"/>
<g>
	<path style="fill:#FF6243;" d="M237.113,247.621c0-46.425-37.984-84.409-84.41-84.409h-23.265c-1.518,0-3.025,0.046-4.523,0.125
		c44.343,2.371,79.885,39.376,79.885,84.283l0.194,5.502v70.669c0,44.94-35.594,81.968-79.982,84.291
		c1.467,0.076,2.942,0.118,4.427,0.118h23.459c46.425,0,84.41-37.984,84.41-84.409v-70.669L237.113,247.621z"/>
	<path style="fill:#FF6243;" d="M236.831,318.678c18.103,0,32.777-14.675,32.777-32.777c0-18.102-14.675-32.777-32.777-32.777
		V318.678L236.831,318.678z"/>
</g>
<path style="fill:#FF7956;" d="M42.444,318.678c-18.103,0-32.777-14.675-32.777-32.777c0-18.103,14.675-32.777,32.777-32.777
	V318.678z"/>
<g>
	<path style="fill:#ACAAB1;" d="M197.274,65.72h-84.68c-4.223,0-7.646,3.422-7.646,7.646s3.423,7.646,7.646,7.646h84.68
		c4.223,0,7.646-3.422,7.646-7.646C204.92,69.143,201.496,65.72,197.274,65.72L197.274,65.72z"/>
	<path style="fill:#ACAAB1;" d="M295.559,65.72h-58.535c-4.223,0-7.646,3.422-7.646,7.646s3.423,7.646,7.646,7.646h58.535
		c4.223,0,7.646-3.422,7.646-7.646C303.205,69.143,299.782,65.72,295.559,65.72L295.559,65.72z"/>
</g>
<path style="fill:#4BCDB2;" d="M399.596,344.714v-13.752c0-6.706-5.487-12.193-12.193-12.193h-62.568
	c-6.706,0-12.193,5.487-12.193,12.193v13.752v5.237h86.953L399.596,344.714L399.596,344.714z"/>
<path style="fill:#F99C8A;" d="M198.61,251.423h-41.58c-6.857,0-12.667,4.654-14.461,10.955h-3.364
	c-1.794-6.301-7.605-10.955-14.461-10.955H83.162c-8.275,0-15.045,6.77-15.045,15.045v18.126c0,15.916,13.022,28.938,28.938,28.938
	h13.793c15.916,0,28.938-13.022,28.938-28.938v-6.772h2.198v6.772c0,15.916,13.022,28.938,28.938,28.938h13.793
	c15.916,0,28.938-13.022,28.938-28.938v-18.126C213.654,258.193,206.884,251.423,198.61,251.423z"/>
<rect x="312.64" y="339.43" style="fill:#328777;" width="86.95" height="10.522"/>
<g>
	<path style="fill:#50000F;" d="M113.366,282.056c0.006-0.141,0.021-0.279,0.021-0.422c0-5.21-4.224-9.434-9.434-9.434
		s-9.434,4.224-9.434,9.434c0,0.143,0.015,0.281,0.021,0.422c-0.006,0.141-0.021,0.279-0.021,0.422c0,5.21,4.224,9.434,9.434,9.434
		s9.434-4.224,9.434-9.434C113.387,282.335,113.372,282.197,113.366,282.056z"/>
	<path style="fill:#50000F;" d="M177.82,272.199c-5.21,0-9.434,4.224-9.434,9.434c0,0.143,0.015,0.281,0.021,0.422
		c-0.006,0.141-0.021,0.279-0.021,0.422c0,5.21,4.224,9.434,9.434,9.434s9.434-4.224,9.434-9.434c0-0.143-0.015-0.281-0.021-0.422
		c0.006-0.141,0.021-0.279,0.021-0.422C187.254,276.423,183.031,272.199,177.82,272.199z"/>
	<path style="fill:#50000F;" d="M198.61,242.932h-41.58c-6.312,0-12.027,2.593-16.144,6.765c-4.117-4.173-9.833-6.765-16.144-6.765
		h-41.58c-12.512,0-22.69,10.178-22.69,22.69v18.127c0,20.172,16.411,36.584,36.584,36.584h3.736
		c-5.281,5.03-8.583,12.12-8.583,19.972v1.132c0,4.224,3.423,7.646,7.646,7.646h1.821c-2.395,3.002-2.206,7.387,0.574,10.167
		c10.652,10.651,24.645,15.978,38.636,15.978c13.992,0,27.984-5.327,38.637-15.978c2.78-2.78,2.969-7.165,0.574-10.167h1.82
		c4.223,0,7.646-3.422,7.646-7.646v-1.132c0-7.852-3.302-14.942-8.583-19.972h3.737c20.172,0,36.584-16.411,36.584-36.584v-18.127
		C221.3,253.111,211.122,242.932,198.61,242.932z M140.886,321.95c-2.914-3.149-6.523-5.643-10.579-7.242
		c4.168-2.629,7.768-6.073,10.579-10.109c2.811,4.037,6.411,7.481,10.579,10.109C147.409,316.308,143.8,318.801,140.886,321.95z
		 M75.764,283.751v-18.127c0-4.079,3.318-7.398,7.398-7.398h41.58c4.08,0,7.398,3.319,7.398,7.398v18.127
		c0,11.74-9.551,21.292-21.292,21.292H97.055C85.315,305.042,75.764,295.491,75.764,283.751z M113.744,349.084h27.142h27.143
		C152.866,363.549,128.908,363.549,113.744,349.084z M206.008,283.751c0,11.74-9.551,21.292-21.292,21.292h-13.793
		c-11.74,0-21.292-9.551-21.292-21.292v-18.127c0-4.079,3.318-7.398,7.398-7.398h41.58c4.08,0,7.398,3.319,7.398,7.398
		L206.008,283.751L206.008,283.751z"/>
	<path style="fill:#50000F;" d="M460.017,22.786H97.813c-28.663,0-51.983,23.319-51.983,51.983v91.575
		c0,0.365,0.035,0.721,0.084,1.072C33.969,185.425,27,207.008,27,230.192v16.741c-15.709,5.549-27,20.539-27,38.124
		c0,21.18,16.378,38.596,37.132,40.278c0.742,29.006,14.97,54.716,36.629,71.086c-29.004,13.698-48.216,43.068-48.216,75.989v9.158
		c0,4.224,3.423,7.646,7.646,7.646H248.58c4.223,0,7.646-3.422,7.646-7.646v-9.158c0-32.921-19.212-62.291-48.217-75.989
		c13.398-10.126,23.953-23.825,30.231-39.669h221.777c28.663,0,51.983-23.319,51.983-51.983V74.768
		C512,46.104,488.681,22.786,460.017,22.786z M15.292,285.057c0-12.732,9.518-23.274,21.809-24.906v49.811
		C24.81,308.331,15.292,297.786,15.292,285.057z M161.986,473.923h-39.998v-22.162l19.035-10.027l20.963,10.197v21.993l0,0V473.923z
		 M140.886,425.517c-9.758,0-18.652-4.349-24.604-11.418c4.208,0.591,8.506,0.904,12.876,0.904h23.458
		c4.369,0,8.666-0.313,12.875-0.904C159.538,421.168,150.644,425.517,140.886,425.517z M40.838,472.411
		c0-30.579,20.267-57.421,49.528-65.992c1.855,0.866,3.744,1.673,5.664,2.416c4.091,11.933,12.652,21.473,23.514,26.929
		l-8.765,4.617c-2.511,1.323-4.082,3.928-4.082,6.765v26.777H40.838V472.411z M240.934,472.411v1.512h-63.656v-26.777
		c0-2.926-1.67-5.596-4.301-6.875l-10.033-4.88c10.521-5.511,18.798-14.888,22.797-26.556c1.92-0.743,3.809-1.55,5.664-2.416
		C220.666,414.99,240.934,441.832,240.934,472.411z M152.615,399.712h-23.458c-42.328,0-76.764-34.435-76.764-76.764v-76.171
		c0-42.328,34.436-76.764,76.764-76.764c4.223,0,7.646-3.422,7.646-7.646s-3.423-7.646-7.646-7.646
		c-38.37,0-71.326,23.6-85.131,57.042c8.655-45.587,48.793-80.166,96.86-80.166c49.28,0,90.231,36.342,97.461,83.633
		c-13.302-34.494-46.8-59.032-85.926-59.032c-4.223,0-7.646,3.422-7.646,7.646s3.423,7.646,7.646,7.646
		c42.327,0,76.763,34.436,76.763,76.764c0,0.581,0.07,1.146,0.194,1.69v0.645c-0.123,0.544-0.194,1.108-0.194,1.69
		s0.07,1.146,0.194,1.69v62.174c-0.123,0.544-0.194,1.108-0.194,1.69s0.07,1.146,0.194,1.69v3.424
		C229.379,365.276,194.943,399.712,152.615,399.712z M244.671,261.184c10.028,3.302,17.291,12.753,17.291,23.873
		s-7.263,20.571-17.291,23.873V261.184z M391.95,341.461h-71.661v-11.343c0-2.465,2.082-4.547,4.547-4.547h62.568
		c2.464,0,4.547,2.082,4.547,4.547L391.95,341.461L391.95,341.461z M496.708,304.771c0,20.231-16.459,36.691-36.691,36.691h-52.776
		v-11.343c0-10.939-8.899-19.839-19.839-19.839h-62.568c-10.939,0-19.839,8.899-19.839,19.839v11.343H242.8
		c1.112-5.425,1.739-11.023,1.848-16.747c18.56-3.653,32.606-20.042,32.606-39.657c0-15.903-9.234-29.685-22.619-36.28
		c0.087-0.462,0.138-0.937,0.138-1.424v-17.16c0-62.798-51.089-113.887-113.887-113.887c-31.034,0-59.201,12.482-79.764,32.683
		V74.768c0-20.231,16.459-36.691,36.691-36.691h362.205c20.231,0,36.691,16.46,36.691,36.691L496.708,304.771L496.708,304.771z"/>
	<path style="fill:#50000F;" d="M197.274,64.876h-84.68c-4.223,0-7.646,3.422-7.646,7.646c0,4.224,3.423,7.646,7.646,7.646h84.68
		c4.223,0,7.646-3.422,7.646-7.646C204.92,68.299,201.496,64.876,197.274,64.876z"/>
	<path style="fill:#50000F;" d="M303.205,72.522c0-4.224-3.423-7.646-7.646-7.646h-58.535c-4.223,0-7.646,3.422-7.646,7.646
		s3.423,7.646,7.646,7.646h58.535C299.782,80.168,303.205,76.746,303.205,72.522z"/>
	<path style="fill:#50000F;" d="M421.973,203.378h-4.925v-37.035c0-2.996-1.75-5.717-4.479-6.959
		c-2.727-1.243-5.929-0.775-8.189,1.194l-17.341,15.104c-3.184,2.774-3.517,7.603-0.743,10.787
		c2.774,3.187,7.603,3.517,10.788,0.743l4.673-4.071v20.236h-4.925c-4.223,0-7.646,3.422-7.646,7.646s3.423,7.646,7.646,7.646
		h25.142c4.223,0,7.646-3.422,7.646-7.646S426.196,203.378,421.973,203.378z"/>
	<path style="fill:#50000F;" d="M313.298,204.462h-4.925v-37.035c0-2.996-1.751-5.717-4.479-6.959s-5.929-0.775-8.189,1.194
		l-17.342,15.105c-3.184,2.774-3.517,7.603-0.743,10.787c2.774,3.185,7.603,3.517,10.788,0.743l4.673-4.071v20.235h-4.925
		c-4.223,0-7.646,3.422-7.646,7.646s3.423,7.646,7.646,7.646h25.142c4.223,0,7.646-3.422,7.646-7.646
		S317.521,204.462,313.298,204.462z"/>
	<path style="fill:#50000F;" d="M360.902,177.307h-5.946v-5.946c0-4.224-3.423-7.646-7.646-7.646s-7.646,3.422-7.646,7.646v5.946
		h-5.947c-4.223,0-7.646,3.422-7.646,7.646s3.423,7.646,7.646,7.646h5.947v5.947c0,4.224,3.423,7.646,7.646,7.646
		s7.646-3.422,7.646-7.646v-5.947h5.946c4.223,0,7.646-3.422,7.646-7.646S365.125,177.307,360.902,177.307z"/>
</g>
<g>
</g>
<g>
</g>
<g>
</g>
<g>
</g>
<g>
</g>
<g>
</g>
<g>
</g>
<g>
</g>
<g>
</g>
<g>
</g>
<g>
</g>
<g>
</g>
<g>
</g>
<g>
</g>
<g>
</g>
</svg>
